<mxfile host="Electron" modified="2023-08-09T04:38:02.481Z" agent="Mozilla/5.0 (Windows NT 10.0; Win64; x64) AppleWebKit/537.36 (KHTML, like Gecko) draw.io/21.6.5 Chrome/114.0.5735.243 Electron/25.3.1 Safari/537.36" etag="L-GbJm3ywtf5qlFgzVFS" version="21.6.5" type="device">
  <diagram name="Page-1" id="PhInhtSMpelU7793LP_E">
    <mxGraphModel dx="880" dy="545" grid="1" gridSize="10" guides="1" tooltips="1" connect="1" arrows="1" fold="1" page="1" pageScale="1" pageWidth="1169" pageHeight="827" math="0" shadow="0">
      <root>
        <mxCell id="0" />
        <mxCell id="1" parent="0" />
        <mxCell id="MMvpEZXNArpYDAEUdth0-1" value="ClientPackage" style="shape=folder;fontStyle=1;tabWidth=110;tabHeight=20;tabPosition=left;html=1;boundedLbl=1;labelInHeader=1;container=1;collapsible=0;recursiveResize=0;whiteSpace=wrap;fontFamily=Helvetica;fontSize=11;fontColor=default;" vertex="1" parent="1">
          <mxGeometry width="150" height="100" as="geometry" />
        </mxCell>
        <mxCell id="MMvpEZXNArpYDAEUdth0-2" value="«Home»&lt;br&gt;Client" style="html=1;whiteSpace=wrap;fontFamily=Helvetica;fontSize=11;fontColor=default;" vertex="1" parent="MMvpEZXNArpYDAEUdth0-1">
          <mxGeometry width="110" height="60" relative="1" as="geometry">
            <mxPoint x="20" y="30" as="offset" />
          </mxGeometry>
        </mxCell>
        <mxCell id="MMvpEZXNArpYDAEUdth0-3" value="Figure 12.13 Using the HomeExample Profile to Extend a Model" style="text;html=1;align=left;verticalAlign=middle;resizable=0;points=[];autosize=1;strokeColor=none;fillColor=none;fontSize=11;fontFamily=Helvetica;fontColor=default;fontStyle=1" vertex="1" parent="1">
          <mxGeometry y="100" width="350" height="30" as="geometry" />
        </mxCell>
        <mxCell id="MMvpEZXNArpYDAEUdth0-4" value="" style="fontStyle=0;labelPosition=right;verticalLabelPosition=middle;align=left;verticalAlign=middle;spacingLeft=2;fontFamily=Helvetica;fontSize=11;fontColor=default;shape=ellipse;perimeter=ellipsePerimeter;whiteSpace=wrap;html=1;aspect=fixed;" vertex="1" parent="1">
          <mxGeometry x="110" y="40" width="10" height="10" as="geometry" />
        </mxCell>
      </root>
    </mxGraphModel>
  </diagram>
</mxfile>
